<svg width="811" height="500" viewBox="0 0 811 500" fill="none" xmlns="http://www.w3.org/2000/svg">
<rect x="335.324" y="0.00396729" width="477.113" height="499.134" fill="#F8F4F1"/>
<mask id="mask0_2150_40065" style="mask-type:alpha" maskUnits="userSpaceOnUse" x="0" y="0" width="813" height="500">
<rect x="0.820374" y="0.00396729" width="811.617" height="499.134" fill="#D9D9D9"/>
</mask>
<g mask="url(#mask0_2150_40065)">
<g filter="url(#filter0_d_2150_40065)">
<g filter="url(#filter1_d_2150_40065)">
<rect x="307.669" y="-1.04462" width="304.883" height="189.563" rx="7.96492" transform="rotate(12.3376 307.669 -1.04462)" fill="white"/>
</g>
<mask id="mask1_2150_40065" style="mask-type:luminance" maskUnits="userSpaceOnUse" x="268" y="0" width="336" height="248">
<rect x="307.669" y="-1.04462" width="304.883" height="189.563" rx="7.96492" transform="rotate(12.3376 307.669 -1.04462)" fill="white"/>
</mask>
<g mask="url(#mask1_2150_40065)">
<rect width="313.985" height="206.09" transform="translate(306.946 -4.85583) rotate(12.3376)" fill="white"/>
<path d="M405.673 67.7114C409.442 69.013 411.958 66.2769 415.575 60.4403C416.314 59.2383 416.937 58.0656 417.149 57.4709C418.479 53.6298 416.081 50.4734 413.159 49.4661C410.732 48.6216 408.646 48.9562 406.97 50.458C405.719 51.5754 404.684 53.449 403.632 56.519C402.541 59.7032 402.088 61.8953 402.24 63.4421C402.455 65.5074 403.675 67.0154 405.673 67.7114Z" fill="#C63663"/>
<path d="M384.682 146.142L376.874 169.772C376.204 171.78 374.152 172.954 372.087 172.503L334.14 164.203C332.076 163.751 330.701 161.828 330.93 159.723L339.682 80.2789C339.779 79.4001 340.255 78.5906 340.966 78.0779C341.692 77.5549 342.603 77.3722 343.46 77.5596L399.621 89.8434C400.491 90.0336 401.229 90.5769 401.671 91.3554C402.1 92.1311 402.198 93.0525 401.919 93.8916L398.91 102.984C400.904 104.252 402.318 106.184 402.907 108.467L409.279 89.1602L414.901 90.3898C417.211 90.8952 419.491 89.43 419.997 87.1134C420.504 84.7969 419.045 82.5139 416.734 82.0085L414.15 81.4434L414.241 79.2267C414.469 77.3129 413.41 75.4994 411.676 74.7793L346.644 45.65C344.597 44.8069 342.239 45.7638 341.273 47.8163L335.148 60.891L355.492 65.3405C356.361 65.5308 356.896 66.3841 356.708 67.243C356.517 68.115 355.665 68.6514 354.808 68.464L331.168 63.2932C328.857 62.7878 326.578 64.253 326.071 66.5696C325.564 68.8861 327.024 71.1691 329.335 71.6745L334.956 72.904L325.456 159.126C324.915 164.026 328.155 168.553 332.959 169.604L370.893 177.901C375.709 178.954 380.544 176.193 382.101 171.502L389.215 149.984C387.478 148.908 385.966 147.61 384.682 146.142Z" fill="#F06000"/>
<path d="M359.785 129.051L355.41 128.094L359.452 109.613L363.827 110.57C369.397 111.788 372.46 116.441 371.27 121.881C370.08 127.321 365.355 130.269 359.785 129.051ZM365.7 100.016L357.132 98.1418C353.471 97.3411 350.242 99.4167 349.439 103.087L343.587 129.844C342.784 133.514 344.852 136.749 348.513 137.549L357.081 139.424C369.323 142.101 379.649 135.877 382.188 124.269C384.725 112.673 377.943 102.694 365.7 100.016Z" fill="#F06000"/>
<path d="M422.212 117.354C422.921 114.113 421.138 111.255 417.983 110.565C414.816 109.872 412.015 111.728 411.307 114.969L407.29 133.332C406.516 136.872 403.245 139.075 399.844 138.331C396.443 137.587 394.388 134.233 395.165 130.68L399.181 112.316C399.89 109.076 398.107 106.218 394.953 105.528C391.785 104.835 388.985 106.691 388.276 109.931L384.154 128.776C382.008 138.589 387.495 146.962 397.492 149.149C407.488 151.335 415.97 146.017 418.116 136.204L422.238 117.359L422.212 117.354Z" fill="#F06000"/>
<path d="M488.898 158.45L481.916 145.904L492.785 137.631C494.366 136.436 495.356 135.084 495.652 133.73C496.375 130.425 494.41 127.281 491.177 126.574C489.541 126.216 487.813 126.779 485.913 128.314L473.268 139.294L475.517 129.013C476.248 125.668 474.547 122.937 471.288 122.224C468.03 121.511 465.343 123.283 464.612 126.628L458.07 156.535C457.339 159.879 459.04 162.611 462.299 163.323C465.557 164.036 468.244 162.265 468.975 158.92L471.244 148.547L478.821 164.223C479.938 166.391 481.071 167.429 482.733 167.793C485.966 168.5 488.859 166.528 489.605 163.118C489.957 161.572 489.688 159.877 488.898 158.45Z" fill="#F06000"/>
<path d="M509.803 136.512C510.535 133.167 508.833 130.436 505.574 129.723C502.316 129.01 499.629 130.782 498.898 134.127L492.357 164.034C491.625 167.379 493.327 170.11 496.585 170.823C499.844 171.535 502.53 169.764 503.262 166.419L509.803 136.512Z" fill="#F06000"/>
<path d="M561.352 148.114C562.366 145.158 560.538 142.754 558.3 141.978C556.44 141.34 554.835 141.589 553.562 142.742C552.6 143.595 551.81 145.032 550.995 147.39C550.15 149.823 549.822 151.511 549.93 152.694C550.099 154.285 551.042 155.446 552.573 155.972C555.456 156.971 557.398 154.872 560.161 150.39C560.727 149.478 561.195 148.584 561.352 148.114Z" fill="#C63663"/>
<path d="M433.825 135.222L430.483 150.501C429.752 153.845 427.065 155.617 423.807 154.904C420.548 154.192 418.846 151.46 419.578 148.116L426.119 118.208C426.851 114.864 429.537 113.092 432.796 113.805C434.367 114.148 435.68 115.049 436.336 116.093C436.992 117.136 446.626 138.704 446.626 138.704L449.968 123.425C450.699 120.08 453.386 118.308 456.644 119.021C459.903 119.734 461.604 122.465 460.873 125.81L454.331 155.717C453.6 159.062 450.913 160.833 447.655 160.12C446.084 159.777 444.781 158.892 444.115 157.833C443.459 156.789 433.825 135.222 433.825 135.222Z" fill="#F06000"/>
<path d="M521.312 154.357L517.97 169.636C517.239 172.981 514.552 174.753 511.294 174.04C508.035 173.327 506.334 170.596 507.065 167.251L513.607 137.344C514.338 133.999 517.025 132.228 520.283 132.94C521.854 133.284 523.167 134.185 523.823 135.228C524.479 136.272 534.113 157.839 534.113 157.839L537.455 142.56C538.187 139.215 540.873 137.444 544.132 138.156C547.39 138.869 549.092 141.601 548.36 144.945L541.819 174.852C541.087 178.197 538.401 179.969 535.142 179.256C533.571 178.912 532.269 178.027 531.603 176.968C530.947 175.925 521.312 154.357 521.312 154.357Z" fill="#F06000"/>
<path d="M548.904 176.17L547.605 175.886C547.346 175.829 547.14 175.962 547.083 176.222L546.403 179.332C546.346 179.593 546.478 179.799 546.724 179.853C546.971 179.907 547.179 179.761 547.234 179.514L547.456 178.499L547.975 178.613L548.633 180.079C548.686 180.214 548.801 180.307 548.931 180.335C549.191 180.392 549.381 180.27 549.438 180.01C549.46 179.906 549.439 179.819 549.356 179.637L548.948 178.703L549.158 178.612C549.518 178.459 549.767 178.132 549.861 177.702C550.049 176.966 549.644 176.332 548.904 176.17ZM548.197 178.034L547.587 177.9L547.877 176.573L548.487 176.706C548.902 176.797 549.141 177.136 549.056 177.526C548.968 177.93 548.612 178.125 548.197 178.034Z" fill="#F06000"/>
<path d="M549.019 174.273C546.851 173.798 544.71 175.13 544.249 177.239C543.788 179.347 545.178 181.451 547.346 181.925C549.514 182.399 551.655 181.068 552.116 178.959C552.577 176.851 551.187 174.747 549.019 174.273ZM547.496 181.235C545.77 180.858 544.662 179.143 545.041 177.412C545.419 175.681 547.132 174.569 548.871 174.949C550.611 175.33 551.706 177.042 551.324 178.786C550.946 180.517 549.223 181.613 547.496 181.235Z" fill="#F06000"/>
</g>
</g>
<g filter="url(#filter2_d_2150_40065)">
<g filter="url(#filter3_d_2150_40065)">
<rect x="312.079" y="282.078" width="348.819" height="216.881" rx="9.11275" transform="rotate(11.9519 312.079 282.078)" fill="white"/>
</g>
<mask id="mask2_2150_40065" style="mask-type:luminance" maskUnits="userSpaceOnUse" x="268" y="283" width="384" height="282">
<rect x="312.079" y="282.078" width="348.819" height="216.881" rx="9.11275" transform="rotate(11.9519 312.079 282.078)" fill="white"/>
</mask>
<g mask="url(#mask2_2150_40065)">
<rect width="359.233" height="235.79" transform="translate(311.223 277.722) rotate(11.9519)" fill="white"/>
<path d="M424.733 359.985C429.055 361.445 431.913 358.296 436.006 351.59C436.842 350.209 437.547 348.863 437.784 348.181C439.276 343.776 436.509 340.183 433.158 339.053C430.375 338.106 427.99 338.505 426.085 340.236C424.663 341.524 423.492 343.675 422.312 347.196C421.088 350.847 420.588 353.359 420.773 355.127C421.035 357.488 422.443 359.204 424.733 359.985Z" fill="#C63663"/>
<path d="M401.322 449.878L392.572 476.973C391.82 479.275 389.481 480.634 387.116 480.134L343.637 470.93C341.272 470.429 339.684 468.239 339.93 465.83L349.331 374.872C349.435 373.865 349.974 372.936 350.783 372.344C351.61 371.74 352.651 371.524 353.633 371.731L417.98 385.353C418.977 385.564 419.826 386.179 420.337 387.067C420.834 387.951 420.953 389.004 420.64 389.966L417.268 400.392C419.559 401.827 421.192 404.027 421.883 406.635L429.025 384.497L435.465 385.86C438.113 386.42 440.71 384.727 441.272 382.072C441.833 379.418 440.146 376.817 437.498 376.257L434.538 375.63L434.624 373.094C434.871 370.902 433.645 368.836 431.657 368.025L357.03 335.2C354.682 334.251 351.991 335.364 350.901 337.719L343.995 352.725L367.304 357.659C368.3 357.87 368.918 358.842 368.71 359.826C368.498 360.825 367.528 361.446 366.546 361.238L339.459 355.504C336.812 354.944 334.215 356.638 333.653 359.292C333.092 361.946 334.779 364.547 337.427 365.107L343.867 366.471L333.663 465.189C333.082 470.799 336.824 475.953 342.327 477.118L385.791 486.319C391.31 487.487 396.819 484.291 398.564 478.911L406.538 454.238C404.542 453.021 402.803 451.547 401.322 449.878Z" fill="#F06000"/>
<path d="M372.707 430.516L367.694 429.455L372.176 408.28L377.189 409.342C383.57 410.692 387.111 415.991 385.791 422.224C384.472 428.457 379.088 431.867 372.707 430.516ZM379.251 397.252L369.433 395.174C365.239 394.286 361.56 396.686 360.67 400.891L354.18 431.549C353.29 435.754 355.681 439.438 359.875 440.326L369.693 442.404C383.72 445.373 395.485 438.173 398.301 424.872C401.113 411.586 393.277 400.221 379.251 397.252Z" fill="#F06000"/>
<path d="M444.038 416.653C444.824 412.94 442.762 409.683 439.148 408.918C435.518 408.15 432.329 410.295 431.543 414.008L427.089 435.048C426.231 439.104 422.506 441.649 418.609 440.825C414.712 440 412.335 436.178 413.196 432.107L417.65 411.067C418.436 407.354 416.375 404.098 412.76 403.333C409.131 402.564 405.941 404.709 405.155 408.422L400.585 430.014C398.205 441.257 404.547 450.795 416.001 453.219C427.454 455.644 437.117 449.494 439.497 438.251L444.067 416.659L444.038 416.653Z" fill="#F06000"/>
<path d="M520.649 463.157L512.564 448.857L524.936 439.308C526.736 437.928 527.857 436.374 528.185 434.823C528.987 431.036 526.715 427.455 523.011 426.671C521.137 426.274 519.164 426.931 517.002 428.701L502.619 441.361L505.113 429.581C505.924 425.749 503.957 422.637 500.223 421.847C496.489 421.056 493.43 423.104 492.618 426.936L485.365 461.203C484.554 465.035 486.521 468.147 490.255 468.937C493.988 469.728 497.048 467.68 497.859 463.848L500.375 451.963L509.164 469.84C510.459 472.311 511.764 473.49 513.668 473.893C517.371 474.677 520.667 472.399 521.494 468.492C521.884 466.721 521.564 464.784 520.649 463.157Z" fill="#F06000"/>
<path d="M544.397 437.897C545.208 434.065 543.241 430.953 539.507 430.162C535.773 429.372 532.714 431.42 531.902 435.252L524.649 469.519C523.838 473.351 525.805 476.463 529.539 477.253C533.272 478.043 536.332 475.996 537.143 472.163L544.397 437.897Z" fill="#F06000"/>
<path d="M603.463 450.774C604.6 447.384 602.491 444.648 599.924 443.777C597.791 443.061 595.957 443.358 594.51 444.688C593.415 445.671 592.522 447.321 591.608 450.025C590.66 452.815 590.297 454.748 590.431 456.101C590.636 457.921 591.724 459.241 593.48 459.831C596.786 460.952 598.991 458.536 602.117 453.387C602.759 452.338 603.287 451.313 603.463 450.774Z" fill="#C63663"/>
<path d="M457.462 437.006L453.756 454.512C452.945 458.344 449.885 460.392 446.151 459.601C442.418 458.811 440.45 455.699 441.261 451.867L448.515 417.6C449.326 413.768 452.386 411.721 456.12 412.511C457.919 412.892 459.428 413.912 460.187 415.101C460.946 416.29 472.134 440.891 472.134 440.891L475.84 423.385C476.651 419.552 479.711 417.505 483.444 418.295C487.178 419.085 489.146 422.197 488.334 426.029L481.081 460.296C480.27 464.128 477.21 466.176 473.476 465.386C471.676 465.005 470.179 464.002 469.409 462.795C468.65 461.606 457.462 437.006 457.462 437.006Z" fill="#F06000"/>
<path d="M557.702 458.225L553.996 475.731C553.185 479.563 550.125 481.611 546.392 480.82C542.658 480.03 540.69 476.918 541.502 473.086L548.755 438.819C549.566 434.987 552.626 432.94 556.36 433.73C558.16 434.111 559.669 435.131 560.427 436.32C561.186 437.509 572.374 462.11 572.374 462.11L576.08 444.603C576.891 440.771 579.951 438.724 583.685 439.514C587.418 440.304 589.386 443.416 588.575 447.248L581.321 481.515C580.51 485.347 577.45 487.395 573.717 486.604C571.917 486.223 570.419 485.221 569.649 484.014C568.891 482.825 557.702 458.225 557.702 458.225Z" fill="#F06000"/>
<path d="M589.437 482.968L587.949 482.653C587.652 482.59 587.417 482.743 587.354 483.041L586.6 486.605C586.537 486.903 586.689 487.138 586.972 487.198C587.254 487.258 587.492 487.09 587.552 486.807L587.798 485.644L588.393 485.77L589.158 487.443C589.219 487.596 589.352 487.702 589.5 487.733C589.798 487.796 590.014 487.655 590.077 487.357C590.103 487.238 590.077 487.139 589.981 486.931L589.507 485.865L589.747 485.76C590.158 485.582 590.44 485.206 590.544 484.714C590.753 483.87 590.285 483.148 589.437 482.968ZM588.642 485.106L587.943 484.958L588.265 483.437L588.964 483.585C589.44 483.685 589.716 484.071 589.621 484.518C589.524 484.981 589.118 485.206 588.642 485.106Z" fill="#F06000"/>
<path d="M589.555 480.796C587.071 480.27 584.631 481.811 584.12 484.226C583.608 486.642 585.215 489.038 587.699 489.564C590.183 490.09 592.622 488.55 593.134 486.134C593.645 483.719 592.039 481.322 589.555 480.796ZM587.866 488.774C585.888 488.355 584.607 486.401 585.027 484.418C585.447 482.435 587.397 481.15 589.391 481.572C591.384 481.994 592.649 483.944 592.226 485.942C591.806 487.925 589.844 489.193 587.866 488.774Z" fill="#F06000"/>
</g>
</g>
<g filter="url(#filter4_d_2150_40065)">
<g filter="url(#filter5_d_2150_40065)">
<rect x="251.66" y="215.389" width="324.498" height="201.227" rx="9.01926" transform="rotate(-13.4899 251.66 215.389)" fill="white"/>
</g>
<mask id="mask3_2150_40065" style="mask-type:luminance" maskUnits="userSpaceOnUse" x="253" y="141" width="360" height="269">
<rect x="251.66" y="215.389" width="324.498" height="201.227" rx="9.01926" transform="rotate(-13.4899 251.66 215.389)" fill="white"/>
</mask>
<g mask="url(#mask3_2150_40065)">
<rect width="325.347" height="212.78" transform="translate(250.334 209.861) rotate(-13.4899)" fill="white"/>
<path d="M407.764 230.324C408.311 230.066 408.817 230.269 408.922 230.706C409.001 231.033 408.9 231.394 408.411 231.637C405.722 232.976 405.932 235.062 407.22 238.393C407.695 239.608 408.063 239.866 408.596 239.796C409.605 239.67 409.637 238.276 409.034 237.034C407.386 233.732 409.186 232.318 410.355 232.095C411.409 231.9 412.06 232.322 412.191 232.868C412.296 233.305 412.246 233.606 412.876 233.686C413.564 233.752 413.835 233.86 413.992 234.516C414.241 235.553 413.993 237.577 415.414 237.641C416.089 237.652 416.762 237.144 417.227 236.281C417.482 235.816 418.423 234.897 418.888 234.034C419.385 233.048 418.871 232.941 419.87 232.008C421.162 230.773 421.34 228.709 423.314 227.253C424.82 226.141 426.378 225.248 426.56 224.222C426.873 222.471 425.695 220.616 427.092 219.819C427.791 219.42 428.595 219.459 429.443 220.699C430.013 221.545 432.03 222.563 431.18 223.864C430.599 224.755 429.187 226.769 429.321 227.835C429.506 229.118 430.602 229.607 430.305 230.66C430.007 231.713 429.066 232.633 428.538 233.742C428.13 234.59 428.14 235.397 428.008 236.121C427.073 241.141 428.475 242.653 428.513 244.088C428.557 245.291 427.97 246.414 427.256 247.51C426.183 249.153 426.553 249.931 425.28 251.507C424.393 252.645 424.491 254.585 425.018 256.018C425.572 257.561 427.184 258.676 428.675 260.052C430.096 261.386 430.192 262.807 429.094 263.071C428.169 263.292 426.922 263.188 425.842 262.002C424.763 260.817 423.704 258.182 421.718 258.312C419.918 258.455 419.973 259.193 418.263 259.199C417.402 259.174 415.825 258.975 414.574 259.621C412.669 260.599 413.068 262.005 411.355 262.762C410.149 263.34 408.841 262.73 406.35 263.559C404.425 264.194 401.305 266.733 401.248 269.808C401.245 270.56 400.997 271.313 399.905 271.344C399.172 271.347 398.4 271.185 397.449 270.027C395.368 267.464 393.719 266.704 392.621 266.968C391.407 267.259 391.834 268.023 390.794 268.272C390.158 268.425 389.746 268.235 389.197 267.731C387.609 266.206 386.687 265.676 385.399 265.407C384.171 265.124 382.705 265.129 380.668 265.56C378.113 266.115 375.775 265.29 372.377 264.372C369.049 263.495 368.187 264.741 366.86 263.038C366.246 262.26 364.182 262.063 362.872 260.933C359.942 258.4 357.699 252.873 357.27 249.047C356.909 246.014 357.336 243.716 357.713 241.72C357.976 240.27 357.946 239.122 357.689 237.797C357.379 236.254 358.632 236.126 359.074 235.674C359.515 235.221 359.075 234.403 360.168 234.372C362.064 234.379 365.122 235.147 376.693 233.7C387.848 232.295 391.109 231.109 393.061 230.582C395.706 229.89 397.915 230.689 398.982 230.549C400.292 230.407 401.018 230.118 401.18 230.541C401.317 230.855 401.254 231.101 400.767 231.622C400.281 232.143 399.582 232.542 399.847 232.883C400.113 233.224 400.63 232.58 401.118 232.578C402.096 232.574 402.976 231.15 404.642 231.213C405.189 231.197 405.658 231.373 406.05 231.222C406.673 231.015 407.084 230.644 407.764 230.324Z" fill="#C63663"/>
<path fill-rule="evenodd" clip-rule="evenodd" d="M469.861 205.197C467.488 205.766 466.026 208.151 466.595 210.523C467.165 212.895 469.549 214.357 471.922 213.788C474.294 213.219 475.756 210.835 475.187 208.462C474.618 206.09 472.233 204.628 469.861 205.197ZM461.501 218.789C460.778 218.483 459.943 218.45 459.184 218.754C458.425 219.057 457.851 219.59 457.543 220.311L454.352 227.787C453.98 228.657 453.231 229.249 452.377 229.454C451.797 229.593 451.17 229.554 450.58 229.302C449.121 228.679 448.442 226.99 449.065 225.53L452.49 217.68C452.953 216.594 453.542 215.649 454.399 214.833C455.215 214.057 456.163 213.449 457.219 213.027C458.284 212.602 459.402 212.387 460.543 212.39C461.731 212.392 462.883 212.631 463.968 213.098L473.966 217.319C474.508 217.528 475.086 217.534 475.596 217.334C475.943 217.199 476.41 216.906 476.677 216.283L480.347 207.685C480.984 206.192 482.711 205.498 484.203 206.136C485.696 206.772 486.389 208.499 485.752 209.992L481.971 218.892C481.565 219.845 480.982 220.736 480.26 221.452C479.534 222.173 478.69 222.728 477.752 223.103C477.418 223.236 477.078 223.345 476.733 223.428C475.167 223.803 473.454 223.69 471.909 223.025L471.288 222.761L467.348 231.974L477.064 236.118C477.741 236.407 478.31 236.885 478.708 237.499C479.076 238.065 479.282 238.723 479.302 239.401C479.323 240.079 479.157 240.748 478.824 241.336C478.463 241.973 477.925 242.484 477.267 242.814L462.165 250.386L459.116 257.605C458.727 258.527 457.935 259.155 457.032 259.372C456.426 259.517 455.769 259.477 455.151 259.216C453.611 258.566 452.889 256.79 453.54 255.25L458.726 242.97L456.554 233.917C456.012 231.658 456.367 230.822 457.462 228.24L457.573 227.978L461.501 218.789ZM463.499 236.914L464.79 242.298L470 239.686L463.499 236.914Z" fill="#C63663"/>
<path d="M332.089 301.365L322.584 303.646C318.529 304.618 316.29 308.259 317.26 312.302L324.345 341.837C325.315 345.881 328.962 348.109 333.017 347.136L342.522 344.856C356.112 341.596 363.462 330.374 360.39 317.568C357.33 304.769 345.689 298.103 332.089 301.365ZM340.227 333.196L335.364 334.363L330.47 313.964L335.334 312.797C341.512 311.315 346.836 314.474 348.278 320.484C349.72 326.494 346.406 331.714 340.227 333.196Z" fill="#F06000"/>
<path d="M397.232 291.273C396.373 287.693 393.203 285.713 389.694 286.555C386.185 287.396 384.261 290.609 385.118 294.179L389.98 314.447C390.918 318.359 388.701 322.133 384.919 323.04C381.147 323.945 377.449 321.591 376.511 317.678L371.648 297.41C370.79 293.83 367.62 291.85 364.111 292.692C360.602 293.534 358.678 296.746 359.534 300.316L364.527 321.129C367.125 331.959 376.685 337.663 387.788 335C398.881 332.339 404.822 322.915 402.224 312.085L397.232 291.273Z" fill="#F06000"/>
<path d="M484.092 299.986L471.001 290.841L477.915 277.313C478.921 275.355 479.265 273.534 478.905 272.032C478.029 268.382 474.531 266.192 470.952 267.051C469.131 267.488 467.682 268.891 466.515 271.336L459.141 288.429L456.417 277.075C455.532 273.384 452.5 271.488 448.879 272.357C445.259 273.225 443.417 276.29 444.303 279.981L452.225 313.005C453.11 316.695 456.142 318.591 459.762 317.723C463.383 316.855 465.224 313.789 464.339 310.099L461.594 298.654L476.786 310.632C478.951 312.256 480.596 312.736 482.446 312.292C486.036 311.431 487.987 308.062 487.082 304.291C486.663 302.589 485.582 301.025 484.092 299.986Z" fill="#F06000"/>
<path d="M494.448 267.951C493.563 264.261 490.531 262.365 486.911 263.233C483.29 264.102 481.449 267.167 482.334 270.858L490.256 303.881C491.141 307.572 494.173 309.468 497.794 308.6C501.414 307.731 503.256 304.666 502.37 300.975L494.448 267.951Z" fill="#F06000"/>
<path d="M551.827 254.56C551.421 251.128 548.413 249.599 545.784 249.92C543.6 250.178 542.127 251.214 541.395 252.978C540.847 254.304 540.748 256.119 541.073 258.857C541.412 261.697 541.888 263.545 542.575 264.671C543.513 266.173 545.019 266.879 546.806 266.663C550.195 266.255 551.116 263.23 551.722 257.422C551.853 256.228 551.892 255.099 551.827 254.56Z" fill="#C63663"/>
<path d="M417.551 303.493L421.598 320.363C422.484 324.053 420.642 327.118 417.022 327.987C413.402 328.855 410.369 326.959 409.484 323.269L401.56 290.235C400.674 286.544 402.516 283.479 406.136 282.61C407.886 282.191 409.628 282.455 410.796 283.177C411.953 283.902 432.08 300.754 432.08 300.754L428.033 283.884C427.147 280.193 428.989 277.128 432.609 276.26C436.229 275.391 439.261 277.287 440.147 280.978L448.069 314.002C448.954 317.692 447.112 320.758 443.492 321.626C441.743 322.046 440.003 321.791 438.833 321.059C437.655 320.339 417.551 303.493 417.551 303.493Z" fill="#F06000"/>
<path d="M514.656 280.198L518.703 297.068C519.589 300.758 517.747 303.824 514.127 304.692C510.507 305.561 507.475 303.665 506.589 299.974L498.665 266.94C497.779 263.249 499.621 260.184 503.241 259.316C504.991 258.896 506.733 259.16 507.901 259.883C509.059 260.607 529.185 277.459 529.185 277.459L525.138 260.589C524.253 256.899 526.094 253.833 529.715 252.965C533.335 252.097 536.367 253.992 537.252 257.683L545.174 290.707C546.06 294.398 544.218 297.463 540.598 298.331C538.848 298.751 537.108 298.497 535.938 297.764C534.768 297.032 514.656 280.198 514.656 280.198Z" fill="#F06000"/>
<path d="M551.987 290.843L550.976 291.086C550.773 291.134 550.673 291.297 550.722 291.498L551.3 293.908C551.348 294.11 551.511 294.21 551.703 294.164C551.895 294.117 551.993 293.945 551.947 293.753L551.758 292.967L552.163 292.87L553.126 293.673C553.208 293.749 553.321 293.775 553.422 293.751C553.624 293.703 553.717 293.553 553.668 293.351C553.649 293.27 553.604 293.217 553.484 293.118L552.879 292.602L552.997 292.467C553.198 292.237 553.262 291.923 553.182 291.591C553.064 291.011 552.563 290.705 551.987 290.843ZM552.112 292.391L551.637 292.505L551.39 291.477L551.865 291.363C552.189 291.285 552.472 291.441 552.545 291.744C552.618 292.046 552.446 292.311 552.112 292.391Z" fill="#F06000"/>
<path d="M551.413 289.477C549.724 289.882 548.668 291.543 549.06 293.177C549.452 294.81 551.147 295.811 552.835 295.406C554.524 295.001 555.58 293.34 555.188 291.707C554.796 290.073 553.102 289.072 551.413 289.477ZM552.707 294.872C551.362 295.194 549.999 294.37 549.677 293.029C549.355 291.688 550.184 290.326 551.539 290.001C552.884 289.679 554.247 290.503 554.571 291.855C554.893 293.196 554.062 294.547 552.707 294.872Z" fill="#F06000"/>
</g>
</g>
</g>
<defs>
<filter id="filter0_d_2150_40065" x="267.088" y="0.471619" width="338.499" height="250.484" filterUnits="userSpaceOnUse" color-interpolation-filters="sRGB">
<feFlood flood-opacity="0" result="BackgroundImageFix"/>
<feColorMatrix in="SourceAlpha" type="matrix" values="0 0 0 0 0 0 0 0 0 0 0 0 0 0 0 0 0 0 127 0" result="hardAlpha"/>
<feOffset dy="1.59298"/>
<feGaussianBlur stdDeviation="0.796492"/>
<feColorMatrix type="matrix" values="0 0 0 0 0 0 0 0 0 0 0 0 0 0 0 0 0 0 0.160784 0"/>
<feBlend mode="normal" in2="BackgroundImageFix" result="effect1_dropShadow_2150_40065"/>
<feBlend mode="normal" in="SourceGraphic" in2="effect1_dropShadow_2150_40065" result="shape"/>
</filter>
<filter id="filter1_d_2150_40065" x="264.699" y="-2.71435" width="343.278" height="255.263" filterUnits="userSpaceOnUse" color-interpolation-filters="sRGB">
<feFlood flood-opacity="0" result="BackgroundImageFix"/>
<feColorMatrix in="SourceAlpha" type="matrix" values="0 0 0 0 0 0 0 0 0 0 0 0 0 0 0 0 0 0 127 0" result="hardAlpha"/>
<feOffset dy="0.796492"/>
<feGaussianBlur stdDeviation="1.99123"/>
<feColorMatrix type="matrix" values="0 0 0 0 0 0 0 0 0 0 0 0 0 0 0 0 0 0 0.3 0"/>
<feBlend mode="normal" in2="BackgroundImageFix" result="effect1_dropShadow_2150_40065"/>
<feBlend mode="normal" in="SourceGraphic" in2="effect1_dropShadow_2150_40065" result="shape"/>
</filter>
<filter id="filter2_d_2150_40065" x="267.03" y="283.765" width="386.441" height="284.687" filterUnits="userSpaceOnUse" color-interpolation-filters="sRGB">
<feFlood flood-opacity="0" result="BackgroundImageFix"/>
<feColorMatrix in="SourceAlpha" type="matrix" values="0 0 0 0 0 0 0 0 0 0 0 0 0 0 0 0 0 0 127 0" result="hardAlpha"/>
<feOffset dy="1.82255"/>
<feGaussianBlur stdDeviation="0.911275"/>
<feColorMatrix type="matrix" values="0 0 0 0 0 0 0 0 0 0 0 0 0 0 0 0 0 0 0.160784 0"/>
<feBlend mode="normal" in2="BackgroundImageFix" result="effect1_dropShadow_2150_40065"/>
<feBlend mode="normal" in="SourceGraphic" in2="effect1_dropShadow_2150_40065" result="shape"/>
</filter>
<filter id="filter3_d_2150_40065" x="264.296" y="280.12" width="391.909" height="290.154" filterUnits="userSpaceOnUse" color-interpolation-filters="sRGB">
<feFlood flood-opacity="0" result="BackgroundImageFix"/>
<feColorMatrix in="SourceAlpha" type="matrix" values="0 0 0 0 0 0 0 0 0 0 0 0 0 0 0 0 0 0 127 0" result="hardAlpha"/>
<feOffset dy="0.911275"/>
<feGaussianBlur stdDeviation="2.27819"/>
<feColorMatrix type="matrix" values="0 0 0 0 0 0 0 0 0 0 0 0 0 0 0 0 0 0 0.3 0"/>
<feBlend mode="normal" in2="BackgroundImageFix" result="effect1_dropShadow_2150_40065"/>
<feBlend mode="normal" in="SourceGraphic" in2="effect1_dropShadow_2150_40065" result="shape"/>
</filter>
<filter id="filter4_d_2150_40065" x="251.709" y="141.545" width="362.388" height="271.273" filterUnits="userSpaceOnUse" color-interpolation-filters="sRGB">
<feFlood flood-opacity="0" result="BackgroundImageFix"/>
<feColorMatrix in="SourceAlpha" type="matrix" values="0 0 0 0 0 0 0 0 0 0 0 0 0 0 0 0 0 0 127 0" result="hardAlpha"/>
<feOffset dy="1.80385"/>
<feGaussianBlur stdDeviation="0.901926"/>
<feColorMatrix type="matrix" values="0 0 0 0 0 0 0 0 0 0 0 0 0 0 0 0 0 0 0.160784 0"/>
<feBlend mode="normal" in2="BackgroundImageFix" result="effect1_dropShadow_2150_40065"/>
<feBlend mode="normal" in="SourceGraphic" in2="effect1_dropShadow_2150_40065" result="shape"/>
</filter>
<filter id="filter5_d_2150_40065" x="249.004" y="137.938" width="367.8" height="276.685" filterUnits="userSpaceOnUse" color-interpolation-filters="sRGB">
<feFlood flood-opacity="0" result="BackgroundImageFix"/>
<feColorMatrix in="SourceAlpha" type="matrix" values="0 0 0 0 0 0 0 0 0 0 0 0 0 0 0 0 0 0 127 0" result="hardAlpha"/>
<feOffset dy="0.901926"/>
<feGaussianBlur stdDeviation="2.25481"/>
<feColorMatrix type="matrix" values="0 0 0 0 0 0 0 0 0 0 0 0 0 0 0 0 0 0 0.3 0"/>
<feBlend mode="normal" in2="BackgroundImageFix" result="effect1_dropShadow_2150_40065"/>
<feBlend mode="normal" in="SourceGraphic" in2="effect1_dropShadow_2150_40065" result="shape"/>
</filter>
</defs>
</svg>
