<svg width="28" height="29" viewBox="0 0 28 29" fill="none" xmlns="http://www.w3.org/2000/svg">
<path fill-rule="evenodd" clip-rule="evenodd" d="M14 28.8669C21.732 28.8669 28 22.5989 28 14.8669C28 7.13496 21.732 0.866943 14 0.866943C6.26801 0.866943 0 7.13496 0 14.8669C0 22.5989 6.26801 28.8669 14 28.8669ZM20.9476 7.08917L15.2811 13.6759H15.2807L21.4437 22.6447H16.9112L12.761 16.6051L7.56509 22.6447H6.22222L12.1648 15.7375L6.22222 7.08917H10.7548L14.6846 12.8083L19.6048 7.08917H20.9476ZM12.8397 14.9525L13.4418 15.8137V15.8141L17.5429 21.6798H19.6055L14.5798 14.4914L13.9777 13.6302L10.1115 8.10003H8.04894L12.8397 14.9525Z" fill="#3E342F"/>
</svg>
